<svg t="1708011296817" class="icon" viewBox="0 0 1061 1024" version="1.1" xmlns="http://www.w3.org/2000/svg" p-id="902" width="16" height="16"><path d="M945.758815 716.193185c51.01037 0 95.307852 37.394963 95.307852 87.836445v101.110518c0 50.479407-44.259556 87.912296-95.307852 87.912296H131.337481c-51.048296 0-95.307852-37.432889-95.307851-87.912296V804.02963c0-50.441481 44.297481-87.836444 95.307851-87.836445h814.421334z m0.493037 94.738963l-0.493037 0.075852H131.337481l-0.493037-0.075852v87.343408l0.493037-0.037926H946.251852v-87.305482zM641.441185 260.323556c29.202963 0 56.054519 17.332148 66.74963 44.790518l114.081185 293.357037a47.407407 47.407407 0 0 1-44.183704 64.625778H299.045926A47.407407 47.407407 0 0 1 254.862222 598.471111l114.081185-293.357037a71.300741 71.300741 0 0 1 66.74963-44.790518h205.748148z m-15.549629 94.814814h-174.724741l-82.830222 213.105778h340.461037l-82.868149-213.143704z" fill="#36D6BB" p-id="903"></path><path d="M945.758815 568.282074c51.768889 0 95.307852 39.973926 95.307852 91.401482v241.929481c0 51.427556-43.538963 91.401481-95.307852 91.401482H131.337481c-51.768889 0-95.307852-39.973926-95.307851-91.401482v-241.967407c0-51.38963 43.538963-91.401481 95.307851-91.401482h814.421334z m0.493037 94.663111l-0.493037 0.151704H131.337481l-0.493037-0.113778v235.33037l0.493037-0.075851h814.421334l0.493037 0.113777V662.945185zM624.791704 18.356148c96.749037 0 176.734815 73.462519 176.734815 166.191408 0 92.690963-79.985778 166.191407-176.734815 166.191407h-172.487111c-96.711111 0-176.734815-73.500444-176.734815-166.191407 0-92.728889 80.023704-166.191407 176.734815-166.191408h172.487111z m0 94.814815h-172.487111c-46.08 0-81.92 32.881778-81.92 71.376593 0 38.456889 35.84 71.376593 81.92 71.376592h172.487111c46.117926 0 81.92-32.919704 81.92-71.376592 0-38.494815-35.802074-71.376593-81.92-71.376593z" fill="#467ED9" p-id="904"></path></svg>